<?xml version="1.0" standalone="no"?><!DOCTYPE svg PUBLIC "-//W3C//DTD SVG 1.1//EN" "http://www.w3.org/Graphics/SVG/1.1/DTD/svg11.dtd"><svg class="icon" height="512" viewBox="0 0 1024 1024" version="1.1" xmlns="http://www.w3.org/2000/svg"><path d="M185.12896 902.95296h646.4512V1018.88H185.12896z" fill="#312B28" /><path d="M449.8176 855.22944h119.85408V721.1008H449.8176v134.12864z" fill="#FDCC9B" /><path d="M449.8176 726.67136s50.49344 32.128 119.85408 24.47872v-40.28928H449.8176v15.81056zM335.07328 502.272c0 36.71552-26.0096 66.80576-58.6496 66.80576-32.128 0-58.1376-29.57312-58.1376-66.80576 0-36.72064 26.0096-66.81088 58.6496-66.81088 32.128 0.512 58.1376 30.09024 58.1376 66.81088z m466.1248 0c0 36.71552-26.0096 66.80576-58.6496 66.80576s-58.63936-30.09024-58.63936-66.80576c0-36.72064 25.99936-66.81088 58.63936-66.81088s58.6496 30.09024 58.6496 66.81088z" fill="#FCBC85" /><path d="M742.54848 374.77376c0-98.432-71.90016-170.33728-232.5504-170.33728-160.64512 0-232.55552 71.90528-232.55552 170.33728 0 98.42688-16.82944 357.504 232.55552 357.504 249.37984 0 232.5504-259.07712 232.5504-357.504z" fill="#FDCC9B" /><path d="M421.77024 486.46144c0 15.30368-11.21792 27.53536-24.99072 27.53536s-24.99072-12.2368-24.99072-27.53536 11.21792-27.54048 24.99072-27.54048c13.2608 0 24.99072 12.24192 24.99072 27.54048z" fill="#3B2519" /><path d="M392.704 474.22464c0 4.08064-3.56864 7.64928-7.64928 7.64928s-7.64928-3.56864-7.64928-7.64928 3.56864-7.64928 7.64928-7.64928c4.58752 0 7.64928 3.56864 7.64928 7.64928z" fill="#FFFFFF" /><path d="M355.98336 418.1248c11.72992 6.1184 31.10912-20.39808 74.97216 2.54976 8.15616 4.08064 12.7488-35.70176-34.17088-35.70176-40.80128 0-47.94368 29.57824-40.80128 33.152z" fill="#51362A" /><path d="M651.264 486.46144c0 15.30368-11.2128 27.53536-24.9856 27.53536s-24.99072-12.24192-24.99072-27.53536c0-15.29856 11.2128-27.54048 24.99072-27.54048 13.7728 0 24.9856 12.24192 24.9856 27.54048z" fill="#3B2519" /><path d="M622.70976 474.22464c0 4.08064-3.56864 7.64928-7.64928 7.64928s-7.64928-3.56864-7.64928-7.64928 3.56864-7.64928 7.64928-7.64928 7.64928 3.56864 7.64928 7.64928z" fill="#FFFFFF" /><path d="M663.51104 418.1248c-11.72992 6.1184-31.10912-20.39808-74.97216 2.54976-8.17152 4.08064-12.7488-35.70176 34.17088-35.70176 40.80128 0 47.93856 29.57824 40.80128 33.152z" fill="#51362A" /><path d="M509.4912 583.36256c-24.99072 0-39.7824-18.36032-39.7824-9.68704 0 9.17504 7.1424 26.00448 39.7824 26.00448s39.7824-17.33632 39.7824-26.00448c0.50688-8.67328-14.79168 9.68704-39.7824 9.68704z m0 83.12832c-8.67328 0-13.7728-6.6304-13.7728-3.56864 0 3.072 2.54976 9.18016 13.7728 9.18016 11.21792 0 13.76768-6.10816 13.76768-9.18016 0-3.06176-5.09952 3.56864-13.76768 3.56864z" fill="#FCBC85" /><path d="M509.4912 643.53792c-39.2704 0-63.24224-15.81056-63.24224-12.24704 0 4.08576 11.21792 19.89632 63.24224 19.89632 52.0192 0 63.232-15.81056 63.232-19.89632-0.00512-4.07552-23.45472 12.24704-63.232 12.24704z" fill="#F8945E" /><path d="M509.4912 775.15776c-29.58336 0-59.1616 4.08064-88.74496 11.2128 0 0 32.13312 41.82016 88.74496 41.82016 52.0192 0 86.70208-35.70176 91.8016-40.80128a352.47104 352.47104 0 0 0-91.8016-12.23168z" fill="#F36C21" /><path d="M449.8176 780.2624s17.34144 21.92384 60.18048 21.92384c42.33216 0 60.18048-21.92384 60.18048-21.92384s-62.73024-22.44096-120.36096 0z" fill="#FDCC9B" /><path d="M700.72832 183.5264s-86.19008-109.64992-265.70752-68.34176c-179.51232 41.31328-192.768 149.43232-187.1616 254.4896 5.09952 105.05728 19.3792 166.76352 36.72064 159.11424 16.82944-7.64416 8.15616-77.0048 10.19904-92.81536 2.03776-15.81056 17.84832-88.22784 126.98624-77.52192 109.1328 10.71104 200.93952-29.07136 200.93952-29.07136s37.22752 46.91968 61.19936 55.58784c48.44544 17.84832 32.64 137.18016 52.01408 137.18016 18.87744 0.52736 112.7168-275.3792-35.18976-338.62144z" fill="#51362A" /><path d="M512.42496 1008.63488l-124.25728-205.96736h246.5024l-122.24512 205.96736z" fill="#EDF2F2" /><path d="M510.41792 800.67584l31.47264 39.54688-15.45216 24.44288 9.11872 123.9552-23.1424 20.01408-27.11552-20.49536 9.07776-123.47392-15.77984-25.20064 31.8208-38.78912z" fill="#EF6565" /><path d="M752.96256 805.25824c-54.85056-27.01312-121.39008-24.59136-121.39008-24.59136L512.42496 1008.64c121.38496 0 229.22752-39.58784 319.1552-107.37152-6.2208-22.08768-25.33888-69.76-78.6176-96.01024z m-240.5376 203.37664L385.0752 780.672s-69.58592-3.07712-120.64256 26.65984c-42.27584 24.61184-70.74304 76.73856-79.30368 93.97248 89.91232 67.75808 205.92128 107.33056 327.296 107.33056z" fill="#312B28" /><path d="M614.6304 744.6784l-104.21248 55.99744 54.11328 67.97824 94.18752-83.98848-44.08832-39.9872zM406.20544 744.6784l104.21248 55.99744-54.10816 65.98656-94.19264-81.9968 44.08832-39.9872z" fill="#FFFFFF" /></svg>